<svg width="300" height="100" viewBox="0 0 300 100" fill="none" xmlns="http://www.w3.org/2000/svg">
<rect width="300" height="100" fill="white"/>
<path d="M117.958 70.992C116.198 70.992 114.518 70.816 112.918 70.464L113.686 63.36C114.934 63.552 116.086 63.648 117.142 63.648C119.126 63.648 120.63 63.056 121.654 61.872C122.678 60.72 123.286 58.768 123.478 56.016C121.59 58.672 118.71 60 114.838 60C112.726 60 110.774 59.456 108.982 58.368C107.222 57.28 105.814 55.808 104.758 53.952C103.734 52.096 103.222 50.064 103.222 47.856C103.222 45.616 103.734 43.568 104.758 41.712C105.782 39.824 107.174 38.336 108.934 37.248C110.726 36.16 112.678 35.616 114.79 35.616C116.742 35.616 118.438 36.128 119.878 37.152C121.35 38.144 122.31 39.488 122.758 41.184V35.616H132.886V53.904C132.886 59.504 131.606 63.744 129.046 66.624C126.518 69.536 122.822 70.992 117.958 70.992ZM117.958 52.8C119.238 52.8 120.342 52.352 121.27 51.456C122.198 50.528 122.694 49.44 122.758 48.192V47.808C122.694 46.592 122.182 45.52 121.222 44.592C120.294 43.664 119.206 43.2 117.958 43.2C116.646 43.2 115.526 43.68 114.598 44.64C113.67 45.568 113.206 46.688 113.206 48C113.206 49.312 113.67 50.448 114.598 51.408C115.526 52.336 116.646 52.8 117.958 52.8Z" fill="#13A9B2"/>
<path d="M137.749 36.288H147.877V41.184C148.613 39.296 149.605 37.904 150.853 37.008C152.133 36.08 153.621 35.616 155.317 35.616L156.709 43.44C153.669 43.44 151.429 43.776 149.989 44.448C148.581 45.088 147.877 46.112 147.877 47.52V60H137.749V36.288Z" fill="#13A9B2"/>
<path d="M171.939 60.384C169.411 60.384 167.155 59.936 165.171 59.04C163.219 58.144 161.699 56.88 160.611 55.248C159.523 53.616 158.979 51.76 158.979 49.68V35.952H168.867V49.536C168.867 50.592 169.155 51.424 169.731 52.032C170.339 52.608 171.091 52.896 171.987 52.896C172.851 52.896 173.555 52.608 174.099 52.032C174.675 51.424 174.963 50.592 174.963 49.536V35.952H184.659V49.68C184.659 51.792 184.115 53.664 183.027 55.296C181.971 56.896 180.483 58.144 178.563 59.04C176.643 59.936 174.435 60.384 171.939 60.384Z" fill="#13A9B2"/>
<path d="M201.744 60.384C199.088 60.384 196.72 59.856 194.64 58.8C192.592 57.712 190.992 56.24 189.84 54.384C188.688 52.496 188.112 50.368 188.112 48C188.112 45.568 188.704 43.408 189.888 41.52C191.072 39.632 192.672 38.176 194.688 37.152C196.704 36.128 198.944 35.616 201.408 35.616C203.776 35.616 205.792 36.144 207.456 37.2C209.152 38.224 210.416 39.632 211.248 41.424C212.08 43.184 212.496 45.168 212.496 47.376C212.496 47.952 212.464 48.368 212.4 48.624L198 50.496C198.384 51.616 199.008 52.432 199.872 52.944C200.736 53.424 201.872 53.664 203.28 53.664C205.456 53.664 207.808 53.104 210.336 51.984L211.536 58.416C208.56 59.728 205.296 60.384 201.744 60.384ZM205.056 44.448C204.544 42.432 203.328 41.424 201.408 41.424C200.256 41.424 199.344 41.856 198.672 42.72C198 43.584 197.648 44.704 197.616 46.08L205.056 44.448Z" fill="#13A9B2"/>
<path d="M215.983 36.288H226.111V40.464C227.647 37.232 230.255 35.616 233.935 35.616C236.079 35.616 238.047 36.16 239.839 37.248C241.663 38.304 243.087 39.776 244.111 41.664C245.167 43.552 245.695 45.664 245.695 48C245.695 50.336 245.151 52.448 244.063 54.336C243.007 56.224 241.567 57.712 239.743 58.8C237.951 59.856 236.031 60.384 233.983 60.384C230.335 60.384 227.711 58.768 226.111 55.536V66.24L215.983 68.16V36.288ZM230.911 52.8C232.223 52.8 233.343 52.32 234.271 51.36C235.199 50.4 235.663 49.28 235.663 48C235.663 46.656 235.183 45.52 234.223 44.592C233.295 43.664 232.191 43.2 230.911 43.2C229.599 43.2 228.479 43.664 227.551 44.592C226.623 45.488 226.159 46.56 226.159 47.808V48C226.159 49.344 226.623 50.48 227.551 51.408C228.511 52.336 229.631 52.8 230.911 52.8Z" fill="#13A9B2"/>
<path d="M249.358 36.288H259.486V41.184C260.222 39.296 261.214 37.904 262.462 37.008C263.742 36.08 265.23 35.616 266.926 35.616L268.318 43.44C265.278 43.44 263.038 43.776 261.598 44.448C260.19 45.088 259.486 46.112 259.486 47.52V60H249.358V36.288Z" fill="#13A9B2"/>
<path d="M55.1445 53.2876L47.9062 69.0601L37.866 54.9053L55.1445 53.2876Z" fill="#13A9B2"/>
<path d="M75.946 37.7251L59.8655 68.2997L41.7746 42.795L75.946 37.7251Z" fill="#13A9B2"/>
<circle cx="63.0574" cy="46.2986" r="2.11806" fill="white"/>
<path d="M78.4657 59.7297L75.1845 66.8796L70.6332 60.463L78.4657 59.7297Z" fill="#13A9B2"/>
<path d="M87.8953 52.6751L80.6058 66.5349L72.405 54.9733L87.8953 52.6751Z" fill="#13A9B2"/>
<circle cx="82.0527" cy="56.5615" r="0.960139" fill="white"/>
</svg>
